<svg width="84" height="84" viewBox="0 0 84 84" fill="none" xmlns="http://www.w3.org/2000/svg">
<circle cx="41.6472" cy="41.6472" r="41.6472" fill="#DFFF1B"/>
<path fill-rule="evenodd" clip-rule="evenodd" d="M41.5 61.4336C30.491 61.4336 21.5664 52.509 21.5664 41.5C21.5664 30.491 30.491 21.5664 41.5 21.5664C52.509 21.5664 61.4336 30.491 61.4336 41.5C61.4336 52.509 52.509 61.4336 41.5 61.4336ZM47.0445 26.6999C45.3066 26.0694 43.4718 25.7479 41.623 25.75C39.6961 25.7477 37.7848 26.0972 35.9833 26.7811C37.6914 28.6143 39.4206 30.4277 41.1707 32.2208C41.3602 32.4152 41.6732 32.4191 41.8674 32.2301C41.8674 32.2301 45.0169 29.2192 47.0447 26.6999H47.0445ZM47.0445 56.6335C45.0169 54.1143 41.8642 51.0558 41.8642 51.0558C41.8184 51.0109 41.7641 50.9754 41.7044 50.9516C41.6448 50.9277 41.5811 50.916 41.5168 50.9169C41.4526 50.9178 41.3892 50.9315 41.3303 50.9571C41.2714 50.9826 41.2182 51.0196 41.1737 51.0659C41.1737 51.0659 38.6586 53.6757 35.9836 56.5523C37.785 57.2363 39.6961 57.5857 41.623 57.5835C43.4718 57.5856 45.3066 57.2641 47.0445 56.6335ZM32.1258 28.8338C32.1258 28.8338 25.7224 33.1882 25.7224 41.517C25.7224 49.846 32.1258 54.6744 32.1258 54.6744L41.4995 44.883L50.9436 54.306C50.9436 54.306 57.6839 49.0433 57.6839 41.4929C57.6839 33.9422 50.8575 28.7752 50.8575 28.7752L44.5398 35.2524L47.8349 38.6576L51.0617 35.7832C51.0617 35.7832 52.7686 38.4305 52.793 41.4811C52.8171 44.5316 51.1557 47.6098 51.1557 47.6098L41.5111 38.0276L32.2838 47.549C32.2838 47.549 30.3928 44.6918 30.4012 41.3961C30.4098 38.1002 32.1258 35.2522 32.1258 35.2522L35.2635 38.3254L38.9539 35.2224L32.1258 28.8338Z" fill="#171A06"/>
</svg>
