<svg width="178" height="32" viewBox="0 0 178 32" fill="none" xmlns="http://www.w3.org/2000/svg">
<path d="M45.8828 25V9.2875H49.4526V25H45.8828ZM40.5782 9.7903V6.6478H54.7572V9.7903H40.5782ZM55.8478 30.38V27.3883H58.4121C58.8981 27.3883 59.3004 27.3213 59.6188 27.1872C59.954 27.0699 60.2306 26.8687 60.4484 26.5838C60.6663 26.3157 60.8339 25.9386 60.9512 25.4525L64.6217 11.349H67.9653L63.9178 26.2067C63.6496 27.2291 63.2725 28.0419 62.7865 28.6453C62.3004 29.2654 61.6719 29.7096 60.901 29.9777C60.1468 30.2459 59.2082 30.38 58.0853 30.38H55.8478ZM60.0965 24.6983V21.9329H63.0127V24.6983H60.0965ZM58.9149 24.6983L54.4903 11.349H58.0099L62.2082 24.6983H58.9149ZM70.3668 30.028V11.349H73.1322V17.2317L72.7048 17.2066C72.7718 15.8155 73.0567 14.6507 73.5595 13.7121C74.0791 12.7736 74.7663 12.078 75.621 11.6255C76.4758 11.1562 77.4311 10.9216 78.487 10.9216C79.4591 10.9216 80.3306 11.0976 81.1015 11.4495C81.8893 11.8015 82.5597 12.2959 83.1127 12.9328C83.6826 13.5697 84.1183 14.3155 84.42 15.1703C84.7217 16.0083 84.8725 16.9133 84.8725 17.8854V18.4133C84.8725 19.4022 84.7217 20.324 84.42 21.1787C84.1351 22.0167 83.7077 22.7625 83.1379 23.4162C82.5848 24.0531 81.9144 24.5559 81.1267 24.9246C80.339 25.2765 79.4591 25.4525 78.487 25.4525C77.4646 25.4525 76.5261 25.243 75.6713 24.824C74.8333 24.3883 74.1545 23.7262 73.635 22.838C73.1154 21.9329 72.8221 20.7681 72.7551 19.3435L73.8612 21.0279V30.028H70.3668ZM77.6071 22.5111C78.3613 22.5111 79.0149 22.3268 79.568 21.9581C80.1378 21.5893 80.582 21.0782 80.9004 20.4245C81.2189 19.7541 81.3781 18.9999 81.3781 18.1619C81.3781 17.2904 81.2189 16.5362 80.9004 15.8993C80.582 15.2624 80.1378 14.768 79.568 14.4161C79.0149 14.0473 78.3613 13.863 77.6071 13.863C76.9199 13.863 76.283 14.0138 75.6964 14.3155C75.1266 14.6172 74.6573 15.0613 74.2886 15.6479C73.9366 16.2345 73.7607 16.9384 73.7607 17.7597V18.7653C73.7607 19.553 73.945 20.2234 74.3137 20.7765C74.6825 21.3296 75.1601 21.7569 75.7467 22.0586C76.3333 22.3603 76.9534 22.5111 77.6071 22.5111ZM94.0541 25.4777C92.8809 25.4777 91.8502 25.2765 90.9619 24.8743C90.0904 24.4721 89.3613 23.9357 88.7747 23.2653C88.2049 22.5782 87.7691 21.8156 87.4675 20.9776C87.1825 20.1396 87.0401 19.2848 87.0401 18.4133V17.9357C87.0401 17.0306 87.1825 16.1591 87.4675 15.3211C87.7691 14.4663 88.2049 13.7121 88.7747 13.0585C89.3613 12.3881 90.082 11.8602 90.9368 11.4747C91.7915 11.0724 92.7804 10.8713 93.9033 10.8713C95.3782 10.8713 96.61 11.1981 97.5989 11.8518C98.6045 12.4887 99.3587 13.335 99.8615 14.3909C100.364 15.43 100.616 16.553 100.616 17.7597V19.0167H88.5233V16.8798H98.4285L97.3475 17.9357C97.3475 17.0641 97.2218 16.3183 96.9704 15.6982C96.719 15.0781 96.3335 14.6004 95.8139 14.2652C95.3111 13.93 94.6743 13.7624 93.9033 13.7624C93.1323 13.7624 92.4787 13.9384 91.9424 14.2904C91.4061 14.6423 90.9954 15.1535 90.7105 15.8239C90.4424 16.4775 90.3083 17.2653 90.3083 18.1871C90.3083 19.0418 90.4424 19.8044 90.7105 20.4748C90.9787 21.1284 91.3893 21.648 91.9424 22.0335C92.4955 22.4022 93.1994 22.5866 94.0541 22.5866C94.9089 22.5866 95.6044 22.419 96.1408 22.0838C96.6771 21.7318 97.0207 21.3044 97.1715 20.8016H100.389C100.188 21.7402 99.8028 22.5614 99.233 23.2653C98.6631 23.9693 97.9341 24.514 97.0458 24.8994C96.1743 25.2849 95.1771 25.4777 94.0541 25.4777ZM109.237 25V6.6478H112.732V25H109.237ZM112.229 25V21.9832H120.55V25H112.229ZM112.229 17.1815V14.1647H119.896V17.1815H112.229ZM112.229 9.6646V6.6478H120.349V9.6646H112.229ZM123.937 25V11.349H126.702V17.2066H126.451C126.451 15.8323 126.627 14.6842 126.979 13.7624C127.33 12.8239 127.85 12.1199 128.537 11.6507C129.241 11.1646 130.113 10.9216 131.152 10.9216H131.303C132.358 10.9216 133.23 11.1646 133.917 11.6507C134.621 12.1199 135.141 12.8239 135.476 13.7624C135.828 14.6842 136.004 15.8323 136.004 17.2066H135.124C135.124 15.8323 135.3 14.6842 135.652 13.7624C136.021 12.8239 136.548 12.1199 137.236 11.6507C137.94 11.1646 138.811 10.9216 139.85 10.9216H140.001C141.057 10.9216 141.937 11.1646 142.641 11.6507C143.345 12.1199 143.873 12.8239 144.225 13.7624C144.593 14.6842 144.778 15.8323 144.778 17.2066V25H141.283V16.8798C141.283 16.025 141.065 15.3462 140.63 14.8434C140.194 14.3239 139.574 14.0641 138.769 14.0641C137.965 14.0641 137.319 14.3323 136.833 14.8686C136.347 15.3881 136.104 16.0921 136.104 16.9803V25H132.61V16.8798C132.61 16.025 132.392 15.3462 131.956 14.8434C131.52 14.3239 130.9 14.0641 130.096 14.0641C129.291 14.0641 128.646 14.3323 128.16 14.8686C127.674 15.3881 127.431 16.0921 127.431 16.9803V25H123.937ZM156.783 25V20.9525H156.205V16.4524C156.205 15.6647 156.012 15.0781 155.627 14.6926C155.241 14.3071 154.646 14.1144 153.842 14.1144C153.423 14.1144 152.92 14.1228 152.333 14.1395C151.747 14.1563 151.152 14.1814 150.548 14.2149C149.962 14.2317 149.434 14.2568 148.964 14.2904V11.3238C149.35 11.2903 149.786 11.2568 150.272 11.2233C150.758 11.1898 151.252 11.173 151.755 11.173C152.275 11.1562 152.761 11.1479 153.213 11.1479C154.621 11.1479 155.786 11.3322 156.708 11.7009C157.646 12.0697 158.35 12.6479 158.819 13.4356C159.305 14.2233 159.548 15.2541 159.548 16.5278V25H156.783ZM152.383 25.352C151.395 25.352 150.523 25.176 149.769 24.824C149.031 24.4721 148.453 23.9693 148.034 23.3156C147.632 22.662 147.431 21.8743 147.431 20.9525C147.431 19.9469 147.674 19.1256 148.16 18.4887C148.663 17.8519 149.358 17.3742 150.247 17.0558C151.152 16.7373 152.207 16.5781 153.414 16.5781H156.582V18.6647H153.364C152.559 18.6647 151.939 18.8658 151.504 19.2681C151.085 19.6536 150.875 20.1564 150.875 20.7765C150.875 21.3966 151.085 21.8994 151.504 22.2849C151.939 22.6704 152.559 22.8631 153.364 22.8631C153.85 22.8631 154.294 22.7793 154.696 22.6117C155.115 22.4273 155.459 22.1257 155.727 21.7067C156.012 21.2709 156.171 20.6843 156.205 19.9469L157.06 20.9273C156.976 21.8826 156.741 22.6871 156.356 23.3408C155.987 23.9944 155.467 24.4972 154.797 24.8492C154.143 25.1844 153.339 25.352 152.383 25.352ZM163.945 25V11.349H167.44V25H163.945ZM162.034 13.9635V11.349H167.44V13.9635H162.034ZM165.227 9.71488C164.54 9.71488 164.029 9.5389 163.694 9.18694C163.375 8.81822 163.216 8.3657 163.216 7.82938C163.216 7.25954 163.375 6.79864 163.694 6.44668C164.029 6.09472 164.54 5.91874 165.227 5.91874C165.914 5.91874 166.417 6.09472 166.736 6.44668C167.054 6.79864 167.213 7.25954 167.213 7.82938C167.213 8.3657 167.054 8.81822 166.736 9.18694C166.417 9.5389 165.914 9.71488 165.227 9.71488ZM171.643 25V6.6478H175.137V25H171.643ZM169.933 9.26236V6.6478H175.137V9.26236H169.933Z" fill="url(#paint0_linear_3_362)"/>
<circle cx="19.8192" cy="11.819" r="3.69054" transform="rotate(112.417 19.8192 11.819)" fill="#00BD82"/>
<circle cx="4.81904" cy="23.819" r="3.69054" transform="rotate(112.417 4.81904 23.819)" fill="#00BD82"/>
<rect x="5" y="11.7312" width="4.29317" height="17.9124" rx="2.14658" transform="rotate(-39.5079 5 11.7312)" fill="#CBF823"/>
<defs>
<linearGradient id="paint0_linear_3_362" x1="52.2007" y1="2.08697" x2="174.615" y2="34.6038" gradientUnits="userSpaceOnUse">
<stop stop-color="#E6FF4B"/>
<stop offset="1" stop-color="#00BD82"/>
</linearGradient>
</defs>
</svg>
