<svg width="31" height="31" viewBox="0 0 31 31" fill="none" xmlns="http://www.w3.org/2000/svg">
<path d="M22.3586 9.21625V11.9331C22.3475 12.9488 21.943 13.9207 21.2302 14.6443C20.5173 15.3679 19.5516 15.7869 18.5361 15.8132H12.4246C11.6098 15.8295 10.8336 16.1638 10.2619 16.7447C9.69023 17.3256 9.36842 18.1071 9.36523 18.9221V24.7478C9.36523 26.4057 10.807 27.3822 12.4246 27.8576C14.4143 28.4798 16.5465 28.4798 18.5361 27.8576C20.0768 27.4115 21.5955 26.5138 21.5955 24.7487V22.4157H15.484V21.638H24.6549C26.4329 21.638 27.0961 20.3977 27.7143 18.5364C28.3424 16.5108 28.3424 14.3425 27.7143 12.3169C27.2747 10.5472 26.4356 9.21533 24.6549 9.21533L22.3586 9.21625ZM18.9218 23.971C19.1533 23.9676 19.3805 24.0331 19.5746 24.1593C19.7688 24.2854 19.9209 24.4665 20.0117 24.6795C20.1026 24.8925 20.1279 25.1276 20.0846 25.3551C20.0413 25.5825 19.9313 25.7919 19.7686 25.9566C19.6058 26.1212 19.3978 26.2337 19.1709 26.2797C18.944 26.3258 18.7085 26.3032 18.4945 26.2149C18.2805 26.1266 18.0976 25.9766 17.9691 25.784C17.8406 25.5914 17.7724 25.3649 17.7731 25.1334C17.7719 24.9815 17.8007 24.8309 17.8578 24.6902C17.9149 24.5495 17.9992 24.4214 18.106 24.3133C18.2127 24.2052 18.3397 24.1193 18.4797 24.0604C18.6196 24.0015 18.7699 23.9708 18.9218 23.9701V23.971Z" fill="#FDF9F1"/>
<path d="M15.3483 2.67608C14.3684 2.67728 13.3903 2.76093 12.4244 2.92614C9.83492 3.38322 9.36502 4.34043 9.36502 6.10646V8.43766H15.4838V9.21533H7.06863C6.16795 9.19869 5.29037 9.50091 4.59093 10.0686C3.89149 10.6363 3.4152 11.433 3.2462 12.3178C2.67184 14.3509 2.67184 16.5033 3.2462 18.5364C3.6813 20.3474 4.72003 21.638 6.49797 21.638H8.602V18.8433C8.62435 17.8385 9.03489 16.8814 9.74752 16.1727C10.4602 15.464 11.4195 15.0587 12.4244 15.0419H18.5359C18.941 15.039 19.3415 14.9561 19.7146 14.7982C20.0876 14.6403 20.4259 14.4104 20.7101 14.1217C20.9942 13.833 21.2186 13.491 21.3705 13.1155C21.5224 12.74 21.5988 12.3382 21.5953 11.9331V6.10646C21.5439 5.30015 21.2083 4.53818 20.6481 3.95592C20.088 3.37365 19.3396 3.00879 18.5359 2.92614C17.4822 2.75378 16.4159 2.67013 15.3483 2.67608ZM12.0397 4.55203C12.2709 4.54858 12.4979 4.61393 12.6918 4.73978C12.8858 4.86563 13.0379 5.04629 13.129 5.25882C13.22 5.47135 13.2458 5.70614 13.2031 5.93336C13.1604 6.16059 13.0511 6.36999 12.8891 6.53495C12.7271 6.69991 12.5197 6.813 12.2933 6.85983C12.0669 6.90667 11.8317 6.88514 11.6175 6.79798C11.4034 6.71082 11.22 6.56197 11.0906 6.37034C10.9613 6.17871 10.8918 5.95295 10.8911 5.72174C10.8889 5.41449 11.0085 5.11888 11.2238 4.89964C11.4391 4.6804 11.7325 4.55541 12.0397 4.55203Z" fill="#FDF9F1"/>
</svg>
