<svg width="31" height="31" viewBox="0 0 31 31" fill="none" xmlns="http://www.w3.org/2000/svg">
<path d="M22.3586 9.21637V11.9332C22.3475 12.9489 21.943 13.9208 21.2302 14.6444C20.5173 15.3681 19.5516 15.7871 18.5361 15.8133H12.4246C11.6098 15.8296 10.8336 16.1639 10.2619 16.7448C9.69023 17.3257 9.36842 18.1072 9.36523 18.9222V24.7479C9.36523 26.4058 10.807 27.3823 12.4246 27.8577C14.4143 28.48 16.5465 28.48 18.5361 27.8577C20.0768 27.4116 21.5955 26.5139 21.5955 24.7488V22.4158H15.484V21.6381H24.6549C26.4329 21.6381 27.0961 20.3979 27.7143 18.5366C28.3424 16.5109 28.3424 14.3426 27.7143 12.317C27.2747 10.5473 26.4356 9.21545 24.6549 9.21545L22.3586 9.21637ZM18.9218 23.9711C19.1533 23.9677 19.3805 24.0332 19.5746 24.1594C19.7688 24.2856 19.9209 24.4667 20.0117 24.6796C20.1026 24.8926 20.1279 25.1278 20.0846 25.3552C20.0413 25.5826 19.9313 25.792 19.7686 25.9567C19.6058 26.1214 19.3978 26.2339 19.1709 26.2799C18.944 26.3259 18.7085 26.3033 18.4945 26.215C18.2805 26.1267 18.0976 25.9767 17.9691 25.7841C17.8406 25.5915 17.7724 25.365 17.7731 25.1335C17.7719 24.9817 17.8007 24.831 17.8578 24.6903C17.9149 24.5496 17.9992 24.4215 18.106 24.3134C18.2127 24.2054 18.3397 24.1194 18.4797 24.0605C18.6196 24.0016 18.7699 23.9709 18.9218 23.9702V23.9711Z" fill="#292929"/>
<path d="M15.3483 2.6762C14.3684 2.67741 13.3903 2.76106 12.4244 2.92626C9.83492 3.38334 9.36502 4.34055 9.36502 6.10658V8.43778H15.4838V9.21545H7.06863C6.16795 9.19881 5.29037 9.50104 4.59093 10.0687C3.89149 10.6364 3.4152 11.4331 3.2462 12.3179C2.67184 14.351 2.67184 16.5035 3.2462 18.5366C3.6813 20.3475 4.72003 21.6381 6.49797 21.6381H8.602V18.8434C8.62435 17.8386 9.03489 16.8815 9.74752 16.1728C10.4602 15.4641 11.4195 15.0589 12.4244 15.0421H18.5359C18.941 15.0391 19.3415 14.9563 19.7146 14.7984C20.0876 14.6404 20.4259 14.4106 20.7101 14.1218C20.9942 13.8331 21.2186 13.4912 21.3705 13.1156C21.5224 12.7401 21.5988 12.3383 21.5953 11.9332V6.10658C21.5439 5.30027 21.2083 4.53831 20.6481 3.95604C20.088 3.37377 19.3396 3.00891 18.5359 2.92626C17.4822 2.7539 16.4159 2.67025 15.3483 2.6762ZM12.0397 4.55215C12.2709 4.5487 12.4979 4.61405 12.6918 4.7399C12.8858 4.86575 13.0379 5.04642 13.129 5.25894C13.22 5.47147 13.2458 5.70626 13.2031 5.93349C13.1604 6.16071 13.0511 6.37011 12.8891 6.53507C12.7271 6.70004 12.5197 6.81312 12.2933 6.85995C12.0669 6.90679 11.8317 6.88526 11.6175 6.7981C11.4034 6.71094 11.22 6.56209 11.0906 6.37046C10.9613 6.17883 10.8918 5.95307 10.8911 5.72187C10.8889 5.41461 11.0085 5.119 11.2238 4.89976C11.4391 4.68053 11.7325 4.55553 12.0397 4.55215Z" fill="#292929"/>
</svg>
